<svg width="91.317383" height="24.908203" viewBox="0 0 91.3174 24.9082" fill="none"
    xmlns="http://www.w3.org/2000/svg" xmlns:xlink="http://www.w3.org/1999/xlink">
    <desc>
        Created with Pixso.
    </desc>
    <defs />
    <path id="Landie"
        d="M43.22 7.38Q41.81 9.26 41.81 12.53Q41.81 15.99 43.25 17.87Q43.9 18.72 44.76 19.19Q45.8 19.75 47.13 19.75Q47.97 19.75 48.69 19.45Q49.71 19.03 50.48 18.02L50.7 19.5L54.55 19.5L54.55 0L50.26 0L50.26 6.95Q49.55 6.14 48.67 5.79Q47.97 5.5 47.16 5.5Q45.67 5.5 44.56 6.16Q43.8 6.61 43.22 7.38ZM57.15 1.31Q56.95 1.71 56.95 2.22Q56.95 2.72 57.15 3.13Q57.31 3.45 57.61 3.71Q57.71 3.81 57.83 3.89Q58.44 4.3 59.32 4.3Q60.2 4.3 60.81 3.89Q60.93 3.81 61.03 3.71Q61.33 3.45 61.49 3.13Q61.69 2.72 61.69 2.22Q61.69 1.71 61.49 1.31Q61.33 0.98 61.03 0.72Q60.93 0.62 60.81 0.54Q60.2 0.13 59.32 0.13Q58.44 0.13 57.83 0.54Q57.71 0.62 57.61 0.72Q57.31 0.98 57.15 1.31ZM12.21 16.07L4.45 16.07L4.45 1.01L0 1.01L0 19.5L12.21 19.5L12.21 16.07ZM21.22 18.26Q21.4 19.08 21.63 19.5L25.91 19.5L25.91 19.28Q25.35 18.28 25.32 16.38L25.32 10.3Q25.3 8.82 24.61 7.75Q24.27 7.22 23.76 6.79Q22.24 5.5 19.61 5.5Q16.98 5.5 15.29 6.75Q14.33 7.45 13.91 8.39Q13.59 9.12 13.59 9.99L17.87 9.99Q17.87 9.25 18.24 8.88Q18.62 8.49 19.39 8.49Q20.1 8.49 20.5 8.84Q21.03 9.3 21.03 10.38L21.03 11.1L19.71 11.1Q16.56 11.1 14.91 12.25Q14.29 12.68 13.9 13.26Q13.26 14.23 13.26 15.62Q13.26 16.49 13.58 17.21Q13.92 17.97 14.62 18.57Q15.08 18.97 15.61 19.24Q16.64 19.75 17.92 19.75Q19.29 19.75 20.26 19.13Q20.8 18.79 21.22 18.26ZM31.76 7.37L31.62 5.76L27.61 5.76L27.61 19.5L31.89 19.5L31.89 9.8Q32.14 9.38 32.51 9.14Q33.02 8.81 33.75 8.81Q34.86 8.81 35.28 9.29Q35.69 9.78 35.69 10.82L35.69 19.5L39.99 19.5L39.99 10.65Q39.95 8.07 38.89 6.79Q38.7 6.56 38.48 6.38Q37.45 5.5 35.68 5.5Q34.23 5.5 33.14 6.13Q32.35 6.59 31.76 7.37ZM68.19 7.37L68.05 5.76L64.04 5.76L64.04 19.5L68.32 19.5L68.32 9.8Q68.58 9.38 68.94 9.14Q69.46 8.81 70.19 8.81Q71.29 8.81 71.71 9.29Q72.13 9.78 72.13 10.82L72.13 19.5L76.42 19.5L76.42 10.65Q76.38 8.07 75.32 6.79Q75.14 6.56 74.92 6.38Q73.89 5.5 72.12 5.5Q70.66 5.5 69.58 6.13Q68.79 6.59 68.19 7.37ZM78.97 8.84Q78.29 10.44 78.29 12.53L78.29 12.68Q78.29 15.9 79.84 17.83Q80.57 18.74 81.53 19.22Q82.58 19.75 83.9 19.75Q84.91 19.75 85.73 19.36Q86.44 19.02 87.01 18.39L87.01 18.82Q87.01 20.32 86.26 21.05Q85.55 21.74 84.16 21.74Q83.03 21.74 82.15 21.27Q81.52 20.92 81.02 20.33L79.23 22.85Q79.98 23.76 81.39 24.33Q82.2 24.66 83.04 24.8Q83.67 24.9 84.32 24.9Q86.42 24.9 88.02 24.19Q89.3 23.62 90.09 22.65Q90.3 22.4 90.47 22.13Q90.54 22.02 90.6 21.91Q91.31 20.64 91.31 18.97L91.31 5.76L87.43 5.76L87.28 6.95Q86.89 6.48 86.4 6.17Q85.38 5.5 83.92 5.5Q82.62 5.5 81.57 6.01Q81.24 6.17 80.94 6.37Q80.75 6.5 80.58 6.64Q79.56 7.48 78.97 8.84ZM57.2 19.5L61.49 19.5L61.49 5.76L57.2 5.76L57.2 19.5ZM47.28 16.21Q46.09 15.52 46.09 12.79L46.1 12Q46.23 9.66 47.33 9.03Q47.72 8.81 48.25 8.81Q49.02 8.81 49.55 9.17Q49.99 9.47 50.26 10.02L50.26 15.25Q49.98 15.79 49.55 16.08Q49.01 16.45 48.22 16.45Q47.68 16.45 47.28 16.21ZM83.21 15.46Q82.58 14.48 82.58 12.79Q82.58 10.85 83.23 9.83Q83.59 9.25 84.11 9Q84.51 8.81 85.02 8.81Q85.99 8.81 86.59 9.28Q86.83 9.47 87.01 9.75L87.01 15.52Q86.84 15.77 86.61 15.95Q86 16.45 84.99 16.45Q84.45 16.45 84.02 16.23Q83.55 15.98 83.21 15.46ZM20.28 16.36Q19.75 16.7 18.95 16.7Q18.5 16.7 18.16 16.5Q18.05 16.43 17.95 16.34Q17.8 16.21 17.71 16.05Q17.55 15.77 17.55 15.39Q17.55 14.5 18 14Q18.55 13.39 19.79 13.39L21.03 13.39L21.03 15.58Q20.8 16.02 20.28 16.36Z"
        fill="#37447E" fill-opacity="1.000000" fill-rule="evenodd" />
</svg>